<svg width="488.3749633789062px" height="387.2px" xmlns="http://www.w3.org/2000/svg" viewBox="5.812518310546892 -118.6 488.3749633789062 387.2" style="background: rgb(0, 0, 0);" preserveAspectRatio="xMidYMid"><defs><filter id="editing-hover" x="-100%" y="-100%" width="300%" height="300%"><feFlood flood-color="rgba(1.9607843137254888%,16.862745098039188%,29.01960784313726%,0)" result="flood"></feFlood><feComposite operator="in" in2="SourceAlpha" in="flood" result="shadow"></feComposite><feOffset dx="-4" dy="-4" in="SourceGraphic" result="offset-1"></feOffset><feOffset dx="4" dy="4" in="shadow" result="offset-2"></feOffset><feMerge><feMergeNode in="offset-2"></feMergeNode><feMergeNode in="offset-1"></feMergeNode></feMerge></filter></defs><g filter="url(#editing-hover)"><g transform="translate(79.39997673034668, 146.1999969482422)"><path d="M72.60-140L72.60-140Q99-140 116-129.30L116-129.30L116-129.30Q133-118.60 133.40-97.60L133.40-97.60L133.40-95.20L92-95.20L92-96L92-96Q92-102 87.60-106L87.60-106L87.60-106Q83.20-110 74.20-110L74.20-110L74.20-110Q65.40-110 60.70-107.40L60.70-107.40L60.70-107.40Q56-104.80 56-101L56-101L56-101Q56-95.60 62.40-93L62.40-93L62.40-93Q68.80-90.40 83-87.60L83-87.60L83-87.60Q99.60-84.20 110.30-80.50L110.30-80.50L110.30-80.50Q121-76.80 129-68.40L129-68.40L129-68.40Q137-60 137.20-45.60L137.20-45.60L137.20-45.60Q137.20-21.20 120.70-9.40L120.70-9.40L120.70-9.40Q104.20 2.40 76.60 2.40L76.60 2.40L76.60 2.40Q44.40 2.40 26.50-8.40L26.50-8.40L26.50-8.40Q8.60-19.20 8.60-46.60L8.60-46.60L50.40-46.60L50.40-46.60Q50.40-36.20 55.80-32.70L55.80-32.70L55.80-32.70Q61.20-29.20 72.60-29.20L72.60-29.20L72.60-29.20Q81-29.20 86.50-31L86.50-31L86.50-31Q92-32.80 92-38.40L92-38.40L92-38.40Q92-43.40 85.90-45.90L85.90-45.90L85.90-45.90Q79.80-48.40 66-51.20L66-51.20L66-51.20Q49.20-54.80 38.20-58.70L38.20-58.70L38.20-58.70Q27.20-62.60 19-71.60L19-71.60L19-71.60Q10.80-80.60 10.80-96L10.80-96L10.80-96Q10.80-118.60 28.30-129.30L28.30-129.30L28.30-129.30Q45.80-140 72.60-140L72.60-140ZM296.60-108L296.60-108Q314.60-108 323.60-97.70L323.60-97.70L323.60-97.70Q332.60-87.40 332.60-68.40L332.60-68.40L332.60 0L292.80 0L292.80-63.60L292.80-63.60Q292.80-70.40 289.50-74.50L289.50-74.50L289.50-74.50Q286.20-78.60 280.20-78.60L280.20-78.60L280.20-78.60Q273.20-78.60 268.80-73.80L268.80-73.80L268.80-73.80Q264.40-69 264.40-62L264.40-62L264.40 0L224.60 0L224.60-63.60L224.60-63.60Q224.60-70.40 221.30-74.50L221.30-74.50L221.30-74.50Q218-78.60 212-78.60L212-78.60L212-78.60Q205-78.60 200.60-73.80L200.60-73.80L200.60-73.80Q196.20-69 196.20-62L196.20-62L196.20 0L156.40 0L156.40-105.60L189-105.60L191.60-89.80L191.60-89.80Q197.60-98.20 207.50-103.10L207.50-103.10L207.50-103.10Q217.40-108 228.40-108L228.40-108L228.40-108Q252.20-108 260.40-89.80L260.40-89.80L260.40-89.80Q266.60-98.20 276.30-103.10L276.30-103.10L276.30-103.10Q286-108 296.60-108L296.60-108Z" fill="#ffffff"></path></g></g><style>text {
  font-size: 64px;
  font-family: Arial Black;
  dominant-baseline: central;
  text-anchor: middle;
}</style></svg>